<?xml version="1.0" encoding="UTF-8" standalone="no"?>
<svg
   xmlns:dc="http://purl.org/dc/elements/1.1/"
   xmlns:cc="http://creativecommons.org/ns#"
   xmlns:rdf="http://www.w3.org/1999/02/22-rdf-syntax-ns#"
   xmlns:svg="http://www.w3.org/2000/svg"
   xmlns="http://www.w3.org/2000/svg"
   viewBox="0 0 45.419998 46.086933"
   height="46.086933"
   width="45.419998"
   xml:space="preserve"
   id="svg2"
   version="1.1"><metadata
     id="metadata8"><rdf:RDF><cc:Work
         rdf:about=""><dc:format>image/svg+xml</dc:format><dc:type
           rdf:resource="http://purl.org/dc/dcmitype/StillImage" /></cc:Work></rdf:RDF></metadata><defs
     id="defs6"><clipPath
       id="clipPath18"
       clipPathUnits="userSpaceOnUse"><path
         id="path16"
         d="M 0,34.565 H 34.065 V 0 H 0 Z" /></clipPath></defs><g
     transform="matrix(1.3333333,0,0,-1.3333333,0,46.086933)"
     id="g10"><g
       id="g12"><g
         clip-path="url(#clipPath18)"
         id="g14"><g
           transform="translate(33.8044,17.2824)"
           id="g20"><path
             id="path22"
             style="fill:#3f4096;fill-opacity:1;fill-rule:nonzero;stroke:none"
             d="m 0,0 c 0,-9.263 -7.509,-16.771 -16.772,-16.771 -9.263,0 -16.771,7.508 -16.771,16.771 0,9.263 7.508,16.772 16.771,16.772 C -7.509,16.772 0,9.263 0,0" /></g><g
           transform="translate(16.841,28.7394)"
           id="g24"><path
             id="path26"
             style="fill:#ffffff;fill-opacity:1;fill-rule:nonzero;stroke:none"
             d="m 0,0 c 2.213,-0.158 4.206,-0.728 5.313,-2.834 1.184,-2.25 0.567,-4.35 -0.789,-6.292 -1.269,-1.818 -3.071,-3.239 -3.345,-5.739 -0.13,-1.187 -1.555,-0.431 -2.379,-0.576 -0.936,-0.166 -0.927,0.537 -0.917,1.199 0.022,1.566 0.76,2.827 1.68,4.012 0.572,0.737 1.195,1.437 1.749,2.187 0.949,1.287 1.456,2.717 0.21,4.023 -1.205,1.265 -2.663,0.909 -4.085,0.197 -0.552,-0.276 -0.822,-1.196 -1.765,-0.677 -1.56,0.861 -1.65,1.786 -0.194,2.882 1.348,1.015 2.88,1.49 4.522,1.618" /></g><g
           transform="translate(16.0925,10.9787)"
           id="g28"><path
             id="path30"
             style="fill:#ffffff;fill-opacity:1;fill-rule:nonzero;stroke:none"
             d="M 0,0 C 1.883,-0.034 2.733,-1.026 2.799,-2.456 2.871,-4.008 2.048,-5.162 0.329,-5.153 -1.25,-5.145 -2.07,-4.098 -2.102,-2.625 -2.134,-1.124 -1.215,-0.256 0,0" /></g></g></g></g></svg>